<?xml version="1.0" standalone="no"?>
<!DOCTYPE svg PUBLIC "-//W3C//DTD SVG 20010904//EN"
 "http://www.w3.org/TR/2001/REC-SVG-20010904/DTD/svg10.dtd">
<svg version="1.0" xmlns="http://www.w3.org/2000/svg"
 width="256.000000pt" height="256.000000pt" viewBox="0 0 256.000000 256.000000"
 preserveAspectRatio="xMidYMid meet">
<metadata>
Created by potrace 1.14, written by Peter Selinger 2001-2017
</metadata>
<g transform="translate(0.000000,256.000000) scale(0.100000,-0.100000)"
fill="#000000" stroke="none">
<path d="M977 2363 c-19 -22 -28 -60 -43 -177 -4 -26 -10 -60 -14 -75 -7 -22
-8 -19 -9 19 -2 67 -9 73 -90 76 -64 2 -73 0 -83 -20 -14 -25 -18 -601 -5
-735 26 -273 75 -471 151 -604 19 -34 64 -92 100 -129 111 -115 130 -175 97
-304 -33 -131 -30 -178 16 -214 67 -53 153 4 153 101 0 16 -9 52 -21 81 -25
64 -27 129 -5 183 22 51 46 77 126 130 110 73 233 202 281 297 l19 38 -32 -6
c-18 -3 -37 -7 -43 -9 -12 -3 -115 11 -143 19 -17 6 -22 0 -35 -36 -31 -92
-97 -183 -141 -194 -36 -9 -71 21 -99 86 -33 74 -36 84 -52 180 -4 25 -9 53
-11 63 -6 33 -17 193 -17 252 1 228 89 524 209 700 25 35 16 58 -43 110 -31
28 -63 57 -72 66 -9 9 -42 39 -74 67 -61 55 -93 64 -120 35z"/>
<path d="M1351 1764 c-142 -38 -216 -189 -185 -379 19 -120 111 -258 204 -305
74 -38 185 -52 278 -36 34 6 52 4 79 -10 35 -19 36 -19 47 1 6 11 26 35 45 53
l34 34 -18 71 c-28 112 -26 110 -88 85 -95 -38 -271 -29 -343 19 -50 32 -82
124 -66 186 8 30 40 41 69 22 34 -22 52 -71 55 -146 l3 -63 45 -11 c58 -15
146 -11 192 8 l36 15 -4 68 c-11 200 -99 351 -227 389 -61 18 -86 18 -156 -1z"/>
<path d="M1736 943 c-3 -16 -8 -53 -12 -83 -3 -30 -7 -57 -10 -61 -7 -11 25
-39 45 -39 34 0 42 24 35 96 -8 83 -19 114 -38 114 -8 0 -17 -12 -20 -27z"/>
</g>
</svg>
