<?xml version="1.0" standalone="no"?>
<!DOCTYPE svg PUBLIC "-//W3C//DTD SVG 20010904//EN"
 "http://www.w3.org/TR/2001/REC-SVG-20010904/DTD/svg10.dtd">
<svg version="1.0" xmlns="http://www.w3.org/2000/svg"
 width="1328.000000pt" height="1328.000000pt" viewBox="0 0 1328.000000 1328.000000"
 preserveAspectRatio="xMidYMid meet">
<metadata>
Created by potrace 1.14, written by Peter Selinger 2001-2017
</metadata>
<g transform="translate(0.000000,1328.000000) scale(0.100000,-0.100000)"
fill="#000000" stroke="none">
<path d="M4693 10826 c-188 -61 -327 -183 -421 -371 -65 -132 -62 -61 -62
-1456 0 -787 -4 -1298 -10 -1354 -20 -173 -82 -299 -181 -368 -108 -74 -61
-70 -974 -78 -669 -5 -842 -9 -940 -22 -473 -63 -874 -233 -1233 -522 -470
-379 -740 -852 -844 -1480 -21 -127 -23 -171 -23 -480 0 -369 6 -425 72 -675
163 -619 658 -1146 1316 -1404 201 -79 346 -120 582 -164 l140 -26 1453 -3
1452 -4 78 27 c186 64 320 180 402 349 76 156 70 -184 70 3840 0 3994 5 3685
-64 3830 -83 174 -215 292 -400 356 -73 26 -94 29 -211 28 -108 0 -142 -4
-202 -23z m-722 -4834 c76 -30 138 -87 178 -161 60 -114 61 -127 61 -1030 0
-547 -4 -837 -11 -876 -30 -163 -143 -269 -318 -301 -97 -17 -1305 -20 -1463
-3 -239 25 -484 115 -693 254 -153 102 -239 195 -320 348 -92 173 -127 390
-106 659 32 403 171 669 446 851 220 145 510 253 743 276 48 5 389 8 757 7
l670 -1 56 -23z"/>
<path d="M6425 10822 c-205 -69 -357 -218 -433 -424 l-27 -73 0 -3690 0 -3690
27 -73 c77 -208 236 -362 441 -427 66 -21 98 -25 203 -25 108 0 136 4 202 26
226 75 388 246 452 476 20 72 20 88 20 3713 0 3624 0 3641 -20 3713 -64 231
-224 400 -452 476 -67 23 -93 26 -205 26 -113 0 -138 -4 -208 -28z"/>
<path d="M8184 10826 c-185 -60 -326 -185 -410 -361 -69 -145 -64 164 -64
-3826 0 -4032 -6 -3685 72 -3849 33 -69 56 -101 127 -170 94 -93 174 -142 295
-179 86 -26 257 -29 350 -5 191 49 349 178 445 364 75 146 71 59 71 1469 0
830 4 1295 11 1358 25 230 119 365 293 426 20 7 313 13 846 18 863 7 932 10
1165 59 517 109 995 391 1339 791 278 323 451 709 528 1174 21 127 23 172 23
480 0 368 -7 434 -71 671 -105 389 -320 726 -639 1001 -337 291 -739 474
-1260 571 l-140 26 -1455 3 -1455 2 -71 -23z m2706 -1180 c252 -30 516 -137
732 -298 273 -202 393 -524 359 -960 -32 -403 -172 -670 -445 -850 -231 -152
-509 -254 -761 -278 -147 -13 -1309 -13 -1395 1 -116 18 -201 82 -255 190 -54
105 -55 131 -55 1024 0 572 3 840 11 877 34 158 146 263 314 293 104 19 1336
20 1495 1z"/>
<path d="M3029 10809 c-244 -36 -461 -230 -538 -483 -21 -68 -21 -76 -21
-1402 l0 -1335 513 3 c510 3 512 3 562 26 123 57 196 140 242 275 l28 82 3
1120 c3 1252 6 1192 -68 1341 -134 274 -414 419 -721 373z"/>
<path d="M9747 5656 c-149 -62 -221 -151 -267 -330 -19 -77 -20 -109 -20
-1181 0 -1056 1 -1105 19 -1177 117 -456 641 -660 1033 -401 92 61 177 156
227 256 76 152 71 49 71 1529 l0 1328 -502 0 -503 0 -58 -24z"/>
</g>
</svg>
