<?xml version="1.0" encoding="UTF-8"?>
<svg id="Layer_1" data-name="Layer 1" xmlns="http://www.w3.org/2000/svg" viewBox="0 0 166.43 105.67">
  <defs>
    <style>
      .cls-1 {
        fill: #000;
        stroke-width: 0px;
      }
    </style>
  </defs>
  <path class="cls-1" d="M135.45,64.82v31.96c0,4.65-3.77,8.41-8.41,8.41-2.32,0-4.42-.94-5.94-2.46-1.53-1.52-2.47-3.62-2.47-5.95v-25.7c.25-4,2.08-6.1,5.48-6.27h11.34Z"/>
  <path class="cls-1" d="M91.55,8.41v88.85c0,4.64-3.77,8.41-8.41,8.41s-8.41-3.77-8.41-8.41V8.41C74.73,3.77,78.5,0,83.14,0s8.41,3.77,8.41,8.41Z"/>
  <path class="cls-1" d="M162.11,12.88c-2.88-4.21-6.69-7.41-11.41-9.6s-9.81-3.28-15.25-3.28h-30.34c-.14,0-.29,0-.43.01-.33.02-.66.05-.98.11t-.02.01c-3.96.67-6.98,4.13-6.98,8.28v88.85c0,4.65,3.77,8.41,8.41,8.41,3.39,0,6.31-2,7.64-4.89.57-1.02.85-2.14.85-3.36v-30.33c0-.35.01-.68.03-1,.25-4,2.08-6.1,5.48-6.27.16-.02.32-.02.49-.02h16.09c8.48,0,15.73-2.83,21.74-8.51,6-5.67,9-13.29,9-22.85,0-6.15-1.44-11.34-4.32-15.56ZM144.7,41.57c-3.77,2.43-7.65,3.64-11.65,3.64h-14.25c-3.52,0-5.28-2.18-5.28-6.56v-17.98c0-3.9,2-5.84,6-5.84h14.49c4,0,7.73,1.17,11.16,3.52,3.45,2.36,5.17,5.88,5.17,10.58,0,6-1.88,10.21-5.64,12.64Z"/>
  <path class="cls-1" d="M30.98,40.85V8.88c0-4.65,3.77-8.41,8.41-8.41,2.32,0,4.42.94,5.94,2.46,1.53,1.52,2.47,3.62,2.47,5.95v25.7c-.25,4-2.08,6.1-5.48,6.27h-11.34Z"/>
  <path class="cls-1" d="M4.32,92.79c2.88,4.21,6.69,7.41,11.41,9.6s9.81,3.28,15.25,3.28h30.34c.14,0,.29,0,.43-.01.33-.02.66-.05.98-.11t.02-.01c3.96-.67,6.98-4.13,6.98-8.28V8.41c0-4.65-3.77-8.41-8.41-8.41-3.39,0-6.31,2-7.64,4.89-.57,1.02-.85,2.14-.85,3.36v30.33c0,.35-.01.68-.03,1-.25,4-2.08,6.1-5.48,6.27-.16.02-.32.02-.49.02h-16.09c-8.48,0-15.73,2.83-21.74,8.51C3,60.05,0,67.67,0,77.23c0,6.15,1.44,11.34,4.32,15.56ZM21.73,64.1c3.77-2.43,7.65-3.64,11.65-3.64h14.25c3.52,0,5.28,2.18,5.28,6.56v17.98c0,3.9-2,5.84-6,5.84h-14.49c-4,0-7.73-1.17-11.16-3.52-3.45-2.36-5.17-5.88-5.17-10.58,0-6,1.88-10.21,5.64-12.64Z"/>
</svg>